# xmcd
#
# Track frame offsets:
# 150
# 19787
# 39752
# 59672
# 77915
# 95430
# 110747
# 126340
# 141820
# 160722
# 177545
# 195915
# 215690
# 230330
#
# Disc length: 3331 seconds
#
#
# Revision: 0
# Processed by: cddbd v1.5.1PL0 Copyright (c) Steve Scherf et al.
# Submitted via: FreeRIP 2.90 
#
DISCID=c00d010e
DTITLE=Leonardo - Leonardo
DYEAR=2004
DGENRE=Other
TTITLE0=Eu sei que te Perdi
TTITLE1=Mentira que Virou Paixão
TTITLE2=Deixaria Tudo (Dejaria Todo)
TTITLE3=Quero Colo
TTITLE4=Fiquei Sozinho
TTITLE5=Brincadeira tem Hora
TTITLE6=A Malvada (Esa Malvada)
TTITLE7=Tô Fora
TTITLE8=Cristal Quebrado
TTITLE9=Dona Encrenca
TTITLE10=Um Sonhador
TTITLE11=Eu Juro (I Swear)
TTITLE12=Boto pra Remexer
TTITLE13=Coração Espinhado (Corazon Espinado)
EXTD=
EXTT0=
EXTT1=
EXTT2=
EXTT3=
EXTT4=
EXTT5=
EXTT6=
EXTT7=
EXTT8=
EXTT9=
EXTT10=
EXTT11=
EXTT12=
EXTT13=
PLAYORDER=
